<?xml version="1.0" encoding="UTF-8"?>
<svg id="Layer_2" data-name="Layer 2" xmlns="http://www.w3.org/2000/svg" viewBox="0 0 17.69 20.21">
  <defs>
    <style>
      .cls-foot {
        fill: #fff;
      }
    </style>
  </defs>
  <g id="Layer_2-2" data-name="Layer 2">
    <g>
      <path class="cls-1" d="m8.92,16.45C5.96,14.8,3.03,13.15.07,11.5c0,.38.02.7.01,1.02,0,.16.04.25.18.33,1.46.81,2.91,1.63,4.37,2.44,1.38.77,2.76,1.54,4.14,2.31.12.07.17.14.17.29,0,.32,0,.63,0,.95,0,.04,0,.08-.01.14-2.95-1.65-5.88-3.29-8.84-4.95,0,.41,0,.76.02,1.12,0,.07.06.17.12.2.44.26.9.51,1.34.76,2.42,1.35,4.84,2.7,7.26,4.06.09.05.16.06.24,0,.83-.5,1.67-1,2.5-1.49,1.99-1.18,3.97-2.37,5.96-3.55.1-.06.14-.13.14-.24-.02-.99-.03-1.99-.04-2.98-.02-1.8-.05-3.59-.07-5.39v-.32c-.09.04-.14.07-.19.1-1.34.8-2.68,1.59-4.02,2.39-1.45.87-2.91,1.73-4.36,2.6-.11.06-.2.08-.3,0-.11-.08-.23-.14-.35-.2C5.62,9.57,2.88,8.03.14,6.5c-.03-.02-.08-.03-.13-.05v.27c0,.27,0,.53,0,.8,0,.08.04.19.1.22.96.55,1.93,1.09,2.9,1.63,1.79,1,3.58,2,5.37,3,.16.09.37.15.45.29.08.14.03.36.03.54,0,.23,0,.46,0,.72C5.93,12.26,2.99,10.62.04,8.97c0,.28,0,.52.01.75.02.6-.1.44.43.73.03.02.06.03.09.05,1.33.75,2.67,1.5,4,2.25,1.41.79,2.82,1.57,4.22,2.36.05.03.11.08.11.13.01.4.02.8.02,1.22h0Zm-.18-12.67c.11.06.19.09.27.14,1.7.95,3.41,1.91,5.11,2.86.1.06.19.06.29,0,.27-.16.54-.32.82-.48.13-.07.07-.12-.02-.17-.41-.23-.82-.46-1.24-.69-1.64-.92-3.29-1.85-4.94-2.76-.25-.14-.35-.28-.32-.56.02-.28,0-.57,0-.88.05.02.08.03.11.05,2.5,1.4,4.99,2.8,7.49,4.19.07.04.19.04.25,0,.29-.15.57-.33.85-.49.03-.02.06-.05.1-.08-.05-.03-.08-.06-.12-.08-1.23-.69-2.46-1.38-3.68-2.07-1.62-.91-3.24-1.81-4.86-2.72-.1-.06-.18-.07-.29,0-.75.46-1.51.91-2.27,1.36-1.92,1.14-3.84,2.29-5.76,3.43-.17.1-.35.21-.53.32,2.95,1.65,5.88,3.29,8.83,4.95l-.02-1.25c.06.03.1.04.14.07.28.15.55.32.83.46.07.03.18.04.24.01.29-.16.57-.33.86-.5.1-.06.1-.1,0-.16-.6-.33-1.19-.67-1.79-.99-.22-.12-.33-.25-.3-.51.02-.3,0-.59,0-.92.13.07.23.12.33.18.94.53,1.87,1.05,2.82,1.58.07.04.19.07.24.04.32-.18.63-.37.94-.56.01,0,.02-.03.03-.06-.57-.32-1.14-.64-1.7-.96-.86-.48-1.71-.96-2.57-1.44-.05-.03-.11-.08-.11-.13-.01-.39-.01-.77-.02-1.19h0Z"/>
      <path class="cls-1" d="m8.92,16.45c0-.43,0-.83-.02-1.22,0-.04-.06-.1-.11-.13-1.41-.79-2.82-1.57-4.22-2.36-1.34-.75-2.67-1.5-4-2.25-.03-.02-.06-.03-.09-.05-.52-.29-.41-.13-.43-.73,0-.23,0-.46-.01-.75,2.95,1.66,5.89,3.3,8.85,4.95v-.72c-.01-.18.04-.4-.04-.54-.08-.14-.29-.2-.45-.29-1.79-1-3.58-2-5.37-3-.97-.54-1.94-1.08-2.9-1.63-.06-.03-.1-.14-.1-.22-.01-.27,0-.53,0-.8v-.27s.09.03.12.05c2.74,1.53,5.48,3.06,8.22,4.6.12.07.24.12.35.2.11.07.19.06.3,0,1.45-.87,2.9-1.73,4.36-2.6,1.34-.8,2.68-1.59,4.02-2.39.05-.03.1-.06.19-.1v.32c.03,1.8.05,3.59.08,5.39.01.99.03,1.99.04,2.98,0,.11-.04.18-.14.24-1.99,1.18-3.97,2.37-5.96,3.55-.83.5-1.67.99-2.5,1.49-.09.05-.15.05-.24,0-2.42-1.36-4.84-2.71-7.26-4.06-.45-.25-.9-.5-1.34-.76-.06-.04-.12-.13-.12-.2-.02-.35-.02-.71-.02-1.12,2.96,1.65,5.89,3.3,8.84,4.95,0-.06.02-.1.01-.14,0-.32-.02-.63,0-.95,0-.14-.05-.22-.17-.29-1.38-.77-2.76-1.54-4.14-2.31-1.46-.81-2.91-1.63-4.37-2.44-.14-.08-.19-.18-.18-.33,0-.32,0-.64-.01-1.02,2.95,1.65,5.88,3.29,8.85,4.95h0Z"/>
      <path class="cls-1" d="m8.75,3.78c0,.42,0,.8.02,1.19,0,.04.06.1.11.13.86.48,1.71.96,2.57,1.44.57.32,1.13.63,1.7.96-.01.02-.02.05-.03.06-.31.19-.62.39-.94.56-.06.03-.17,0-.24-.04-.94-.52-1.88-1.05-2.82-1.58-.1-.06-.2-.11-.33-.18,0,.33.03.63,0,.92-.02.26.08.39.3.51.6.32,1.19.66,1.79.99.11.06.1.1,0,.16-.29.17-.57.34-.86.5-.06.03-.17.02-.24-.01-.28-.14-.55-.31-.83-.46-.04-.02-.08-.04-.14-.07l.02,1.25c-2.96-1.66-5.88-3.3-8.83-4.95.19-.11.36-.22.53-.32,1.92-1.14,3.84-2.29,5.76-3.43.76-.45,1.52-.9,2.27-1.36.11-.06.19-.06.29,0,1.62.91,3.24,1.82,4.86,2.72,1.23.69,2.46,1.38,3.68,2.07.04.02.07.05.12.08-.04.03-.07.06-.1.08-.28.17-.56.34-.85.49-.07.04-.19.04-.25,0-2.5-1.39-4.99-2.79-7.49-4.19-.03-.02-.06-.03-.11-.05,0,.31.03.6,0,.88-.02.28.07.42.32.56,1.65.91,3.29,1.83,4.94,2.76.41.23.82.46,1.24.69.09.05.14.1.02.17-.27.16-.55.32-.82.48-.1.06-.19.06-.29,0-1.7-.96-3.41-1.91-5.11-2.86-.08-.05-.16-.08-.27-.14h0Z"/>
    </g>
  </g>
</svg>